<svg id="Layer_2" data-name="Layer 2" xmlns="http://www.w3.org/2000/svg" viewBox="0 0 1440 2960"><defs><style>.cls-1{font-size:100px;font-family:KeepCalm-Medium, Keep Calm;font-weight:500;}.cls-1,.cls-2{fill:#142d56;}.cls-3{fill:#355584;}.cls-4{fill:#99a9bc;}</style></defs><text class="cls-1" transform="translate(481.35 1756.83)">SMU-BEE </text><polygon class="cls-2" points="869.5 1420.31 921.11 1359.27 817.9 1359.27 869.5 1420.31"/><polygon class="cls-2" points="572.07 1420.31 623.67 1359.27 520.47 1359.27 572.07 1420.31"/><polyline class="cls-3" points="733.86 1598.58 846.62 1377.61 826.04 1350.96 615.54 1350.96 595.03 1377.81 707.69 1598.58"/><polygon class="cls-4" points="749.85 1566.83 846.55 1377.82 775.31 1463.78 749.85 1566.83"/><polygon class="cls-4" points="691.73 1566.83 595.03 1377.82 666.25 1463.83 691.73 1566.83"/><polygon class="cls-2" points="721.28 1520.68 694.63 1566.83 747.92 1566.83 721.28 1520.68"/><polygon class="cls-2" points="851.43 1293.82 765.01 1350.96 815.76 1350.96 851.43 1293.82"/><polygon class="cls-2" points="793.97 1328.98 880.39 1271.84 829.64 1271.84 793.97 1328.98"/><polygon class="cls-2" points="830.99 1269.4 934.6 1269.4 892.26 1241.41 830.99 1269.4"/><polygon class="cls-2" points="1024.42 1255.62 920.81 1255.62 963.15 1283.62 1024.42 1255.62"/><polygon class="cls-2" points="1059 1195.16 972.57 1252.31 1023.33 1252.31 1059 1195.16"/><polygon class="cls-2" points="842.28 1260.19 936.51 1217.13 886.37 1209.27 842.28 1260.19"/><polygon class="cls-2" points="961.32 1176.12 908.23 1210.92 936.16 1214.67 961.32 1176.12"/><polygon class="cls-2" points="799.96 1233.57 811.95 1295.91 826.04 1271.5 799.96 1233.57"/><polygon class="cls-2" points="588.7 1294 675.21 1351.03 624.45 1351.1 588.7 1294"/><polygon class="cls-2" points="646.22 1329.09 559.71 1272.07 610.47 1272 646.22 1329.09"/><polygon class="cls-2" points="609.12 1269.56 505.51 1269.7 547.81 1241.65 609.12 1269.56"/><polygon class="cls-2" points="415.66 1256.05 519.27 1255.9 476.97 1283.95 415.66 1256.05"/><polygon class="cls-2" points="381 1195.63 467.51 1252.66 416.75 1252.73 381 1195.63"/><polygon class="cls-2" points="597.81 1260.36 503.51 1217.44 553.65 1209.5 597.81 1260.36"/><polygon class="cls-2" points="478.65 1176.45 531.79 1211.19 503.86 1214.97 478.65 1176.45"/><polygon class="cls-2" points="640.1 1233.68 628.18 1296.04 614.06 1271.65 640.1 1233.68"/></svg>